<svg width="19" height="17" viewBox="0 0 19 17" fill="none" xmlns="http://www.w3.org/2000/svg">
<path d="M13.2917 0C11.6967 0 10.1658 0.711326 9.16667 1.8354C8.1675 0.711326 6.63667 0 5.04167 0C2.21833 0 0 2.12519 0 4.82999C0 8.14951 3.11667 10.8543 7.8375 14.9642L9.16667 16.1146L10.4958 14.9554C15.2167 10.8543 18.3333 8.14951 18.3333 4.82999C18.3333 2.12519 16.115 0 13.2917 0ZM9.25833 13.6557L9.16667 13.7435L9.075 13.6557C4.71167 9.87074 1.83333 7.36793 1.83333 4.82999C1.83333 3.07363 3.20833 1.75636 5.04167 1.75636C6.45333 1.75636 7.82833 2.62576 8.31417 3.82886H10.0283C10.505 2.62576 11.88 1.75636 13.2917 1.75636C15.125 1.75636 16.5 3.07363 16.5 4.82999C16.5 7.36793 13.6217 9.87074 9.25833 13.6557Z" fill="white"/>
</svg>
