<svg width="17" height="21" viewBox="0 0 17 21" fill="none" xmlns="http://www.w3.org/2000/svg">
<path d="M14.7501 4.09219H12.6667C12.6667 1.86636 10.8022 0.0635376 8.50008 0.0635376C6.198 0.0635376 4.33341 1.86636 4.33341 4.09219H2.25008C1.10425 4.09219 0.166748 4.99863 0.166748 6.10651V18.1925C0.166748 19.3003 1.10425 20.2068 2.25008 20.2068H14.7501C15.8959 20.2068 16.8334 19.3003 16.8334 18.1925V6.10651C16.8334 4.99863 15.8959 4.09219 14.7501 4.09219ZM8.50008 2.07786C9.64591 2.07786 10.5834 2.98431 10.5834 4.09219H6.41675C6.41675 2.98431 7.35425 2.07786 8.50008 2.07786ZM14.7501 18.1925H2.25008V6.10651H4.33341V8.12083C4.33341 8.67477 4.80216 9.128 5.37508 9.128C5.948 9.128 6.41675 8.67477 6.41675 8.12083V6.10651H10.5834V8.12083C10.5834 8.67477 11.0522 9.128 11.6251 9.128C12.198 9.128 12.6667 8.67477 12.6667 8.12083V6.10651H14.7501V18.1925Z" fill="white"/>
</svg>
