<svg width="18" height="17" viewBox="0 0 18 17" fill="none" xmlns="http://www.w3.org/2000/svg">
<path d="M12.8629 0.0922241C11.3194 0.0922241 9.8379 0.80355 8.87097 1.92762C7.90403 0.80355 6.42258 0.0922241 4.87903 0.0922241C2.14677 0.0922241 0 2.21742 0 4.92221C0 8.24173 3.01613 10.9465 7.58468 15.0564L8.87097 16.2068L10.1573 15.0476C14.7258 10.9465 17.7419 8.24173 17.7419 4.92221C17.7419 2.21742 15.5952 0.0922241 12.8629 0.0922241ZM8.95968 13.7479L8.87097 13.8357L8.78226 13.7479C4.55968 9.96296 1.77419 7.46015 1.77419 4.92221C1.77419 3.16585 3.10484 1.84858 4.87903 1.84858C6.24516 1.84858 7.57581 2.71798 8.04597 3.92109H9.70484C10.1661 2.71798 11.4968 1.84858 12.8629 1.84858C14.6371 1.84858 15.9677 3.16585 15.9677 4.92221C15.9677 7.46015 13.1823 9.96296 8.95968 13.7479Z" fill="white"/>
</svg>
